<?xml version="1.0" encoding="UTF-8"?>
<!DOCTYPE svg PUBLIC "-//W3C//DTD SVG 1.1//EN" "http://www.w3.org/Graphics/SVG/1.1/DTD/svg11.dtd">
<svg xmlns="http://www.w3.org/2000/svg" version="1.1" width="512px" height="512px" style="shape-rendering:geometricPrecision; text-rendering:geometricPrecision; image-rendering:optimizeQuality; fill-rule:evenodd; clip-rule:evenodd" xmlns:xlink="http://www.w3.org/1999/xlink">
<g><path style="opacity:0.985" fill="#020303" d="M 47.5,-0.5 C 157.167,-0.5 266.833,-0.5 376.5,-0.5C 378.604,1.37183 379.937,3.70516 380.5,6.5C 379.892,9.95832 377.892,12.4583 374.5,14C 266.833,14.3333 159.167,14.6667 51.5,15C 50.3333,16.1667 49.1667,17.3333 48,18.5C 47.5002,27.4938 47.3336,36.4938 47.5,45.5C 47.5,53.1667 47.5,60.8333 47.5,68.5C 186.167,68.5 324.833,68.5 463.5,68.5C 463.667,51.83 463.5,35.1633 463,18.5C 461.786,16.9512 460.286,15.7845 458.5,15C 449.173,14.5002 439.839,14.3335 430.5,14.5C 421.827,14.6664 413.16,14.4998 404.5,14C 401.676,12.1642 400.01,9.66418 399.5,6.5C 399.998,3.67365 401.331,1.34032 403.5,-0.5C 423.5,-0.5 443.5,-0.5 463.5,-0.5C 472.656,3.49745 477.822,10.4975 479,20.5C 479.989,139.529 479.655,258.529 478,377.5C 475.076,384.758 469.909,389.592 462.5,392C 439.502,392.5 416.502,392.667 393.5,392.5C 393.667,425.835 393.5,459.168 393,492.5C 390.937,501.394 385.77,507.727 377.5,511.5C 296.167,511.5 214.833,511.5 133.5,511.5C 125.23,507.727 120.063,501.394 118,492.5C 117.5,459.168 117.333,425.835 117.5,392.5C 94.4976,392.667 71.4976,392.5 48.5,392C 41.0908,389.592 35.9241,384.758 33,377.5C 31.3523,304.864 31.019,232.197 32,159.5C 32.7656,155.232 35.2656,152.899 39.5,152.5C 42.5867,153.053 45.0867,154.72 47,157.5C 47.5,220.166 47.6667,282.832 47.5,345.5C 47.3336,354.506 47.5002,363.506 48,372.5C 48.8333,374.667 50.3333,376.167 52.5,377C 74.4975,377.5 96.4975,377.667 118.5,377.5C 118.5,369.167 118.5,360.833 118.5,352.5C 105.496,352.667 92.4957,352.5 79.5,352C 76.6424,350.306 74.309,348.139 72.5,345.5C 71.3395,269.207 71.1728,192.874 72,116.5C 73.4421,112.725 75.9421,109.892 79.5,108C 196.5,107.5 313.5,107.333 430.5,107.5C 434.479,109.315 437.312,112.315 439,116.5C 439.667,192.167 439.667,267.833 439,343.5C 437.558,347.275 435.058,350.108 431.5,352C 418.504,352.5 405.504,352.667 392.5,352.5C 392.5,360.833 392.5,369.167 392.5,377.5C 414.503,377.667 436.503,377.5 458.5,377C 460.667,376.167 462.167,374.667 463,372.5C 463.5,276.167 463.667,179.834 463.5,83.5C 324.666,83.1671 185.999,83.5004 47.5,84.5C 47.6666,98.8372 47.4999,113.171 47,127.5C 45.4583,130.892 42.9583,132.892 39.5,133.5C 35.2656,133.101 32.7656,130.768 32,126.5C 31.3333,91.1667 31.3333,55.8333 32,20.5C 33.1777,10.4975 38.3443,3.49745 47.5,-0.5 Z"/></g>
<g><path style="opacity:0.999" fill="#04e29b" d="M 380.5,6.5 C 386.833,6.5 393.167,6.5 399.5,6.5C 400.01,9.66418 401.676,12.1642 404.5,14C 413.16,14.4998 421.827,14.6664 430.5,14.5C 430.5,21.5 430.5,28.5 430.5,35.5C 428.394,37.7188 427.394,40.3855 427.5,43.5C 422.536,45.6651 417.536,45.9985 412.5,44.5C 412.519,36.3585 408.519,33.1919 400.5,35C 397.156,36.894 395.822,39.7273 396.5,43.5C 394.429,44.8086 391.929,45.4752 389,45.5C 386.071,45.4752 383.571,44.8086 381.5,43.5C 381.028,35.8762 377.028,33.0429 369.5,35C 366.038,37.2393 364.705,40.406 365.5,44.5C 259.668,45.4995 153.668,45.8328 47.5,45.5C 47.3336,36.4938 47.5002,27.4938 48,18.5C 49.1667,17.3333 50.3333,16.1667 51.5,15C 159.167,14.6667 266.833,14.3333 374.5,14C 377.892,12.4583 379.892,9.95832 380.5,6.5 Z"/></g>
<g><path style="opacity:1" fill="#0dd28f" d="M 430.5,14.5 C 439.839,14.3335 449.173,14.5002 458.5,15C 460.286,15.7845 461.786,16.9512 463,18.5C 463.5,35.1633 463.667,51.83 463.5,68.5C 324.833,68.5 186.167,68.5 47.5,68.5C 47.5,60.8333 47.5,53.1667 47.5,45.5C 153.668,45.8328 259.668,45.4995 365.5,44.5C 371.205,51.2978 376.538,50.9644 381.5,43.5C 383.571,44.8086 386.071,45.4752 389,45.5C 391.929,45.4752 394.429,44.8086 396.5,43.5C 401.278,51.0687 406.611,51.402 412.5,44.5C 417.536,45.9985 422.536,45.6651 427.5,43.5C 432.305,51.0563 437.471,51.3897 443,44.5C 443.588,35.3537 439.421,32.3537 430.5,35.5C 430.5,28.5 430.5,21.5 430.5,14.5 Z"/></g>
<g><path style="opacity:1" fill="#020905" d="M 381.5,43.5 C 376.538,50.9644 371.205,51.2978 365.5,44.5C 364.705,40.406 366.038,37.2393 369.5,35C 377.028,33.0429 381.028,35.8762 381.5,43.5 Z"/></g>
<g><path style="opacity:1" fill="#030a06" d="M 412.5,44.5 C 406.611,51.402 401.278,51.0687 396.5,43.5C 395.822,39.7273 397.156,36.894 400.5,35C 408.519,33.1919 412.519,36.3585 412.5,44.5 Z"/></g>
<g><path style="opacity:1" fill="#030b07" d="M 427.5,43.5 C 427.394,40.3855 428.394,37.7188 430.5,35.5C 439.421,32.3537 443.588,35.3537 443,44.5C 437.471,51.3897 432.305,51.0563 427.5,43.5 Z"/></g>
<g><path style="opacity:0.999" fill="#e8f3fc" d="M 47.5,84.5 C 175.167,84.5 302.833,84.5 430.5,84.5C 430.5,92.1667 430.5,99.8333 430.5,107.5C 313.5,107.333 196.5,107.5 79.5,108C 75.9421,109.892 73.4421,112.725 72,116.5C 71.1728,192.874 71.3395,269.207 72.5,345.5C 64.1667,345.5 55.8333,345.5 47.5,345.5C 47.6667,282.832 47.5,220.166 47,157.5C 45.0867,154.72 42.5867,153.053 39.5,152.5C 39.5,146.167 39.5,139.833 39.5,133.5C 42.9583,132.892 45.4583,130.892 47,127.5C 47.4999,113.171 47.6666,98.8372 47.5,84.5 Z"/></g>
<g><path style="opacity:1" fill="#d4e7f9" d="M 47.5,84.5 C 185.999,83.5004 324.666,83.1671 463.5,83.5C 463.667,179.834 463.5,276.167 463,372.5C 462.167,374.667 460.667,376.167 458.5,377C 436.503,377.5 414.503,377.667 392.5,377.5C 392.5,369.167 392.5,360.833 392.5,352.5C 405.504,352.667 418.504,352.5 431.5,352C 435.058,350.108 437.558,347.275 439,343.5C 439.667,267.833 439.667,192.167 439,116.5C 437.312,112.315 434.479,109.315 430.5,107.5C 430.5,99.8333 430.5,92.1667 430.5,84.5C 302.833,84.5 175.167,84.5 47.5,84.5 Z"/></g>
<g><path style="opacity:1" fill="#76591e" d="M 335.5,122.5 C 252.833,122.5 170.167,122.5 87.5,122.5C 87.5,135.167 87.5,147.833 87.5,160.5C 87.5,165.5 87.5,170.5 87.5,175.5C 86.5032,157.674 86.1699,139.674 86.5,121.5C 169.668,121.167 252.668,121.501 335.5,122.5 Z"/></g>
<g><path style="opacity:1" fill="#fec343" d="M 335.5,122.5 C 335.5,135.167 335.5,147.833 335.5,160.5C 252.833,160.5 170.167,160.5 87.5,160.5C 87.5,147.833 87.5,135.167 87.5,122.5C 170.167,122.5 252.833,122.5 335.5,122.5 Z"/></g>
<g><path style="opacity:1" fill="#866928" d="M 423.5,175.5 C 423.5,157.833 423.5,140.167 423.5,122.5C 418.833,122.5 414.167,122.5 409.5,122.5C 390.167,122.5 370.833,122.5 351.5,122.5C 351.5,135.167 351.5,147.833 351.5,160.5C 351.5,165.5 351.5,170.5 351.5,175.5C 350.503,157.674 350.17,139.674 350.5,121.5C 375.167,121.5 399.833,121.5 424.5,121.5C 424.83,139.674 424.497,157.674 423.5,175.5 Z"/></g>
<g><path style="opacity:1" fill="#fec243" d="M 409.5,122.5 C 414.167,122.5 418.833,122.5 423.5,122.5C 423.5,140.167 423.5,157.833 423.5,175.5C 399.5,175.5 375.5,175.5 351.5,175.5C 351.5,170.5 351.5,165.5 351.5,160.5C 369.594,160.973 387.594,160.473 405.5,159C 407.041,157.421 408.208,155.587 409,153.5C 409.5,143.172 409.666,132.839 409.5,122.5 Z"/></g>
<g><path style="opacity:1" fill="#ffd05a" d="M 409.5,122.5 C 409.666,132.839 409.5,143.172 409,153.5C 408.208,155.587 407.041,157.421 405.5,159C 387.594,160.473 369.594,160.973 351.5,160.5C 351.5,147.833 351.5,135.167 351.5,122.5C 370.833,122.5 390.167,122.5 409.5,122.5 Z"/></g>
<g><path style="opacity:1" fill="#fcb136" d="M 87.5,160.5 C 170.167,160.5 252.833,160.5 335.5,160.5C 335.5,165.5 335.5,170.5 335.5,175.5C 252.833,175.5 170.167,175.5 87.5,175.5C 87.5,170.5 87.5,165.5 87.5,160.5 Z"/></g>
<g><path style="opacity:1" fill="#8e8e8e" d="M 87.5,190.5 C 87.5,239.5 87.5,288.5 87.5,337.5C 97.8333,337.5 108.167,337.5 118.5,337.5C 108.013,338.494 97.3464,338.828 86.5,338.5C 86.1678,288.997 86.5011,239.664 87.5,190.5 Z"/></g>
<g><path style="opacity:1" fill="#fdfdfd" d="M 87.5,190.5 C 194.833,190.5 302.167,190.5 409.5,190.5C 409.667,233.835 409.5,277.168 409,320.5C 408.167,321.333 407.333,322.167 406.5,323C 402.179,323.499 397.846,323.666 393.5,323.5C 393.831,301.327 393.497,279.327 392.5,257.5C 391.503,249.01 387.169,242.844 379.5,239C 365.222,237.403 350.889,237.07 336.5,238C 334.859,239.129 333.859,240.629 333.5,242.5C 330.262,243.748 326.762,244.415 323,244.5C 319.238,244.415 315.738,243.748 312.5,242.5C 312.084,240.248 310.751,238.748 308.5,238C 250.167,237.333 191.833,237.333 133.5,238C 126.242,240.924 121.408,246.091 119,253.5C 118.5,281.498 118.333,309.498 118.5,337.5C 108.167,337.5 97.8333,337.5 87.5,337.5C 87.5,288.5 87.5,239.5 87.5,190.5 Z"/></g>
<g><path style="opacity:1" fill="#f6f4f4" d="M 409.5,190.5 C 414.167,190.5 418.833,190.5 423.5,190.5C 423.5,239.5 423.5,288.5 423.5,337.5C 413.167,337.5 402.833,337.5 392.5,337.5C 392.5,310.833 392.5,284.167 392.5,257.5C 393.497,279.327 393.831,301.327 393.5,323.5C 397.846,323.666 402.179,323.499 406.5,323C 407.333,322.167 408.167,321.333 409,320.5C 409.5,277.168 409.667,233.835 409.5,190.5 Z"/></g>
<g><path style="opacity:1" fill="#8c8b8b" d="M 423.5,190.5 C 424.499,239.664 424.832,288.997 424.5,338.5C 413.654,338.828 402.987,338.494 392.5,337.5C 402.833,337.5 413.167,337.5 423.5,337.5C 423.5,288.5 423.5,239.5 423.5,190.5 Z"/></g>
<g><path style="opacity:1" fill="#5fb6fe" d="M 312.5,242.5 C 315.738,243.748 319.238,244.415 323,244.5C 326.762,244.415 330.262,243.748 333.5,242.5C 332.458,247.133 334.125,250.299 338.5,252C 344.157,252.499 349.824,252.666 355.5,252.5C 355.666,260.507 355.5,268.507 355,276.5C 353.413,279.756 350.913,281.923 347.5,283C 307.835,283.5 268.168,283.667 228.5,283.5C 222.727,273.22 216.727,263.054 210.5,253C 242.833,252.667 275.167,252.333 307.5,252C 311.875,250.299 313.542,247.133 312.5,242.5 Z"/></g>
<g><path style="opacity:1" fill="#89c8fd" d="M 210.5,283.5 C 184.833,283.5 159.167,283.5 133.5,283.5C 133.334,274.494 133.5,265.494 134,256.5C 134.374,255.584 134.874,254.75 135.5,254C 145.405,252.857 155.405,252.357 165.5,252.5C 174.833,252.833 184.167,253.167 193.5,253.5C 199.697,263.23 205.363,273.23 210.5,283.5 Z"/></g>
<g><path style="opacity:1" fill="#25a5fd" d="M 355.5,252.5 C 361.509,252.334 367.509,252.501 373.5,253C 375.333,253.5 376.5,254.667 377,256.5C 377.5,270.163 377.667,283.829 377.5,297.5C 330.495,297.833 283.495,297.5 236.5,296.5C 233.806,292.149 231.14,287.816 228.5,283.5C 268.168,283.667 307.835,283.5 347.5,283C 350.913,281.923 353.413,279.756 355,276.5C 355.5,268.507 355.666,260.507 355.5,252.5 Z"/></g>
<g><path style="opacity:1" fill="#5fb6fe" d="M 133.5,283.5 C 159.167,283.5 184.833,283.5 210.5,283.5C 213.849,287.676 216.849,292.176 219.5,297C 190.835,297.5 162.169,297.667 133.5,297.5C 133.5,292.833 133.5,288.167 133.5,283.5 Z"/></g>
<g><path style="opacity:1" fill="#ababab" d="M 133.5,313.5 C 207.5,313.5 281.5,313.5 355.5,313.5C 355.667,363.501 355.5,413.501 355,463.5C 352.744,468.757 348.91,472.257 343.5,474C 273.501,474.5 203.501,474.667 133.5,474.5C 133.5,420.833 133.5,367.167 133.5,313.5 Z"/></g>
<g><path style="opacity:1" fill="#9b9b9b" d="M 133.5,313.5 C 214.665,312.501 295.998,312.167 377.5,312.5C 377.667,372.501 377.5,432.501 377,492.5C 376.167,493.333 375.333,494.167 374.5,495C 295.581,496.661 216.581,496.994 137.5,496C 136.333,494.833 135.167,493.667 134,492.5C 133.501,486.509 133.334,480.509 133.5,474.5C 203.501,474.667 273.501,474.5 343.5,474C 348.91,472.257 352.744,468.757 355,463.5C 355.5,413.501 355.667,363.501 355.5,313.5C 281.5,313.5 207.5,313.5 133.5,313.5 Z"/></g>
<g><path style="opacity:1" fill="#d4e8fa" d="M 47.5,345.5 C 55.8333,345.5 64.1667,345.5 72.5,345.5C 74.309,348.139 76.6424,350.306 79.5,352C 92.4957,352.5 105.496,352.667 118.5,352.5C 118.5,360.833 118.5,369.167 118.5,377.5C 96.4975,377.667 74.4975,377.5 52.5,377C 50.3333,376.167 48.8333,374.667 48,372.5C 47.5002,363.506 47.3336,354.506 47.5,345.5 Z"/></g>
<g><path style="opacity:1" fill="#040404" d="M 265.5,348.5 C 273.696,348.529 276.863,352.529 275,360.5C 265.54,392.801 256.207,425.134 247,457.5C 242.291,461.769 237.958,461.436 234,456.5C 233.333,453.833 233.333,451.167 234,448.5C 243,416.833 252,385.167 261,353.5C 262.059,351.341 263.559,349.674 265.5,348.5 Z"/></g>
<g><path style="opacity:1" fill="#030303" d="M 202.5,364.5 C 211.556,364.043 214.723,368.043 212,376.5C 201.697,385.726 191.53,395.06 181.5,404.5C 191.191,414.358 201.357,423.691 212,432.5C 214.862,441.268 211.695,445.101 202.5,444C 189.333,432.167 176.167,420.333 163,408.5C 162.333,405.833 162.333,403.167 163,400.5C 176.362,388.634 189.529,376.634 202.5,364.5 Z"/></g>
<g><path style="opacity:1" fill="#030303" d="M 301.5,364.5 C 303.527,364.338 305.527,364.505 307.5,365C 321.296,376.461 334.796,388.294 348,400.5C 348.667,403.167 348.667,405.833 348,408.5C 334.833,420.333 321.667,432.167 308.5,444C 299.305,445.101 296.138,441.268 299,432.5C 309.643,423.691 319.809,414.358 329.5,404.5C 319.809,394.642 309.643,385.309 299,376.5C 296.511,371.757 297.345,367.757 301.5,364.5 Z"/></g>
</svg>
